<?xml version="1.0" standalone="no"?>
<!DOCTYPE svg PUBLIC "-//W3C//DTD SVG 20010904//EN"
 "http://www.w3.org/TR/2001/REC-SVG-20010904/DTD/svg10.dtd">
<svg version="1.0" xmlns="http://www.w3.org/2000/svg"
 width="155.000000pt" height="155.000000pt" viewBox="0 0 155.000000 155.000000"
 preserveAspectRatio="xMidYMid meet">
<metadata>
Created by potrace 1.14, written by Peter Selinger 2001-2017
</metadata>
<g transform="translate(0.000000,155.000000) scale(0.100000,-0.100000)"
fill="#000000" stroke="none">
<path d="M335 1173 c-116 -61 -154 -194 -90 -319 l31 -59 50 -2 c28 -1 55 2
60 5 6 4 28 51 49 104 21 54 41 96 43 93 3 -3 17 -42 32 -88 l26 -82 39 158
c21 87 42 152 46 145 4 -7 26 -62 49 -123 23 -60 46 -115 51 -121 11 -13 117
-10 132 5 16 16 20 102 7 149 -6 26 -28 62 -52 88 -69 74 -146 82 -228 23 -42
-31 -42 -31 -64 -11 -56 51 -125 65 -181 35z"/>
<path d="M616 1040 c-7 -20 -27 -99 -32 -128 -3 -13 -11 -49 -19 -80 -8 -31
-15 -64 -15 -74 0 -41 -17 -13 -44 73 -15 50 -32 87 -36 82 -4 -4 -17 -35 -30
-68 -13 -33 -27 -64 -31 -70 -4 -5 -46 -9 -93 -9 -64 1 -86 -2 -86 -12 0 -8
21 -13 68 -16 120 -6 129 -3 148 48 9 25 21 47 26 50 5 3 7 2 6 -3 -2 -7 42
-150 59 -193 3 -8 25 62 47 155 l42 170 28 -73 28 -73 84 3 c47 2 84 7 84 13
0 6 -34 12 -76 15 l-77 5 -27 75 c-44 120 -47 127 -54 110z"/>
<path d="M995 966 c-8 -6 -14 -24 -13 -41 2 -63 1 -63 -47 -63 -58 0 -65 -6
-65 -52 0 -43 10 -50 71 -50 21 0 39 -3 40 -7 0 -5 2 -26 3 -48 2 -22 4 -43 5
-47 2 -13 79 -9 87 3 4 7 7 31 7 55 l0 44 46 0 c26 0 52 5 58 11 8 8 13 8 17
0 4 -6 29 -11 56 -11 l49 0 3 -52 3 -53 45 0 45 0 3 52 3 52 52 3 52 3 0 45 0
45 -52 3 -53 3 0 49 c0 52 -13 67 -55 66 -35 -2 -45 -16 -45 -65 l0 -48 -52
-2 c-30 0 -55 -6 -60 -13 -6 -10 -8 -10 -8 0 0 8 -17 12 -50 12 -53 0 -57 5
-59 69 0 13 -5 29 -11 35 -14 14 -57 15 -75 2z m65 -66 l5 -55 52 -3 c33 -2
53 -8 57 -17 11 -31 -5 -44 -57 -47 l-52 -3 -3 -53 c-3 -51 -4 -53 -30 -50
-24 3 -27 7 -28 43 -1 22 -2 46 -3 53 -1 8 -19 12 -56 12 -54 0 -55 0 -55 30
0 30 1 30 55 30 42 0 55 4 56 15 1 8 3 33 4 55 3 51 1 47 28 46 19 -1 23 -8
27 -56z m328 -3 l3 -57 54 0 c54 0 55 0 55 -30 0 -30 -1 -30 -54 -30 l-55 0
-3 -52 c-3 -49 -5 -53 -30 -56 -28 -3 -28 -2 -28 52 l0 56 -55 0 c-37 0 -56 4
-57 13 -5 41 -3 42 52 47 l55 5 3 45 c4 62 8 70 34 67 20 -4 23 -10 26 -60z"/>
<path d="M625 845 c-4 -16 -11 -44 -16 -62 -6 -17 -12 -44 -15 -60 -5 -28 -30
-132 -41 -168 -6 -19 -5 -19 23 0 44 28 128 111 179 176 26 33 45 59 43 60 -2
1 -32 2 -67 3 l-64 1 -17 40 -18 40 -7 -30z"/>
<path d="M456 739 c-6 -22 -13 -26 -54 -28 -26 -1 -49 -4 -52 -7 -8 -9 161
-164 180 -164 8 0 -30 136 -55 195 l-12 30 -7 -26z"/>
</g>
</svg>
